<?xml version="1.0" standalone="no"?>
<!DOCTYPE svg PUBLIC "-//W3C//DTD SVG 20010904//EN"
 "http://www.w3.org/TR/2001/REC-SVG-20010904/DTD/svg10.dtd">
<svg version="1.0" xmlns="http://www.w3.org/2000/svg"
 width="200.000000pt" height="200.000000pt" viewBox="0 0 200.000000 200.000000"
 preserveAspectRatio="xMidYMid meet">

<g transform="translate(0.000000,200.000000) scale(0.100000,-0.100000)"
fill="#000000" stroke="none">
<path d="M694 1561 c-44 -27 -64 -59 -64 -103 0 -47 331 -892 363 -926 11 -12
38 -27 58 -33 71 -22 155 44 152 119 -1 32 -303 815 -347 901 -16 31 -70 61
-108 61 -12 0 -37 -9 -54 -19z"/>
<path d="M1098 1472 c-31 -18 -58 -67 -58 -104 0 -12 77 -219 171 -458 122
-310 179 -443 199 -464 32 -33 100 -45 140 -24 32 18 70 74 70 107 0 14 -77
222 -171 461 -191 488 -199 500 -281 500 -24 0 -55 -8 -70 -18z"/>
<path d="M1521 1382 c-45 -23 -75 -64 -75 -105 0 -18 44 -143 98 -280 110
-280 122 -297 205 -297 26 0 56 7 69 16 29 20 52 66 52 104 0 36 -183 506
-208 534 -18 19 -72 46 -94 46 -7 0 -28 -8 -47 -18z"/>
<path d="M421 1264 c-17 -14 -36 -42 -42 -63 -10 -35 -7 -49 65 -232 167 -429
168 -431 205 -456 82 -55 191 2 191 100 0 51 -226 615 -261 650 -38 38 -113
39 -158 1z"/>
<path d="M161 1034 c-52 -44 -50 -71 18 -248 77 -198 84 -212 123 -232 61 -32
135 2 158 72 10 29 5 48 -51 191 -73 189 -82 207 -111 227 -36 25 -101 20
-137 -10z"/>
</g>
</svg>
